<?xml version="1.0" encoding="UTF-8"?>
<svg width="75px" height="100px" viewBox="0 0 75 100" version="1.1" xmlns="http://www.w3.org/2000/svg" xmlns:xlink="http://www.w3.org/1999/xlink">
      <g id="Page-1" stroke="none" stroke-width="1" fill="none" fill-rule="evenodd">
        <path d="M68.75,43.75 L62.5,43.75 L62.5,25 C62.5,12.5 50,0 37.5,0 C25,0 12.5,12.5 12.5,25 L12.5,43.75 L6.25,43.75 C3.125,43.75 0,46.875 0,50 L0,93.75 C0,96.875 3.125,100 6.25,100 L68.75,100 C71.875,100 75,96.875 75,93.75 L75,50 C75,46.875 71.875,43.75 68.75,43.75 Z M50,56.25 L12.5,56.25 L12.5,62.5 L50,62.5 L50,68.75 L12.5,68.75 L12.5,75 L50,75 L50,81.25 L12.5,81.25 L12.5,87.5 L50,87.5 L50,93.75 L6.25,93.75 L6.25,50 L50,50 L50,56.25 Z M50,43.75 L25,43.75 L25,25 C25,18.75 31.25,12.5 37.5,12.5 C43.75,12.5 50,18.75 50,25 L50,43.75 Z" id="Shape" fill="#000000" fill-rule="nonzero"></path>
    </g>
</svg>